<?xml version="1.0" standalone="no"?>
<!DOCTYPE svg PUBLIC "-//W3C//DTD SVG 20010904//EN"
 "http://www.w3.org/TR/2001/REC-SVG-20010904/DTD/svg10.dtd">
<svg version="1.0" xmlns="http://www.w3.org/2000/svg"
 width="500.000000pt" height="500.000000pt" viewBox="0 0 500.000000 500.000000"
 preserveAspectRatio="xMidYMid meet">

<g transform="translate(0.000000,500.000000) scale(0.100000,-0.100000)"
fill="#000000" stroke="none">
<path d="M2308 4233 c-48 -4 -56 -10 -39 -28 14 -16 24 -132 12 -139 -25 -16
-9 -26 32 -21 117 16 116 16 97 45 -7 11 -12 12 -17 4 -5 -7 -21 -14 -38 -15
-26 -4 -30 -1 -33 23 -3 22 1 27 24 30 40 5 42 26 2 30 -25 2 -33 8 -33 23 0
15 8 21 33 23 18 2 32 -1 32 -7 0 -6 5 -11 10 -11 6 0 10 11 10 25 0 20 -5 25
-22 23 -13 -1 -44 -3 -70 -5z"/>
<path d="M2570 4231 c0 -6 5 -11 10 -11 17 0 0 -133 -18 -146 -13 -9 -8 -12
22 -18 42 -8 56 -2 38 16 -15 15 -16 45 -2 53 22 14 50 -6 50 -35 0 -26 22
-50 44 -50 7 0 -4 60 -15 82 -6 10 -5 19 1 23 14 9 12 61 -3 73 -20 17 -127
28 -127 13z m98 -30 c23 -14 10 -46 -21 -49 -24 -3 -27 0 -27 27 0 32 19 41
48 22z"/>
<path d="M1990 4161 c-45 -14 -52 -19 -38 -27 23 -13 59 -129 45 -143 -6 -6
-8 -13 -5 -16 7 -8 121 34 130 48 14 21 9 57 -10 68 -12 8 -17 20 -14 34 4 23
-21 55 -41 54 -7 0 -37 -8 -67 -18z m77 -27 c6 -17 -20 -44 -43 -44 -15 0 -24
48 -10 54 24 10 47 5 53 -10z m27 -70 c8 -20 -7 -40 -34 -47 -15 -4 -22 1 -26
20 -10 38 46 63 60 27z"/>
<path d="M2908 4169 c-30 -17 -22 -55 17 -86 35 -28 45 -58 23 -66 -21 -7 -58
15 -58 35 0 23 -18 24 -27 1 -9 -22 40 -63 77 -63 31 0 60 22 60 47 0 8 -19
33 -42 54 -32 29 -40 41 -31 50 17 17 60 3 66 -21 7 -28 27 -25 27 5 0 40 -71
68 -112 44z"/>
<path d="M3191 4073 c4 -27 -53 -133 -71 -133 -11 -1 -9 -6 9 -20 30 -25 54
-26 47 -2 -4 10 0 26 7 36 14 20 13 20 75 -20 8 -5 -24 -44 -35 -44 -21 0 -15
-16 10 -27 28 -13 43 -11 39 4 -4 18 36 92 63 118 l24 22 -35 16 c-33 16 -35
16 -34 0 3 -25 1 -36 -9 -51 -7 -12 -14 -11 -40 2 -42 22 -40 53 3 70 18 6 17
9 -12 26 -40 24 -44 25 -41 3z"/>
<path d="M1694 4030 c-50 -24 -56 -30 -38 -35 24 -7 81 -116 70 -134 -9 -14 6
-14 39 1 27 12 34 28 12 28 -8 0 -19 11 -25 25 -10 22 -9 25 14 31 18 5 32 0
49 -16 14 -13 31 -20 39 -17 23 9 19 19 -19 47 -19 14 -35 34 -35 45 -1 52
-35 60 -106 25z m60 -6 c22 -9 20 -41 -3 -54 -16 -8 -23 -6 -36 12 -14 21 -14
24 2 35 20 15 17 15 37 7z"/>
<path d="M3452 3845 c-36 -30 -48 -74 -31 -107 31 -59 85 -64 135 -14 85 85
-13 198 -104 121z m96 -17 c31 -31 -12 -108 -61 -108 -51 0 -61 42 -21 89 27
32 61 40 82 19z"/>
<path d="M1433 3854 c-8 -4 -2 -33 20 -97 18 -51 33 -94 34 -96 4 -6 43 31 43
41 0 4 -7 8 -15 8 -23 0 -18 28 10 46 23 15 51 11 40 -6 -13 -21 14 -17 35 5
16 17 19 25 10 25 -8 0 -44 18 -81 40 -68 40 -74 42 -96 34z m65 -50 c18 -13
21 -19 11 -30 -17 -20 -23 -18 -36 16 -13 34 -7 37 25 14z"/>
<path d="M2427 3744 c-47 -15 -137 -89 -137 -114 0 -6 73 -10 211 -10 165 0
209 3 203 13 -29 49 -55 73 -108 98 -68 32 -98 35 -169 13z"/>
<path d="M3730 3656 c0 -18 -88 -86 -112 -86 -25 0 -23 -12 7 -40 19 -18 25
-20 25 -8 0 9 7 21 15 28 13 11 20 9 43 -13 32 -30 63 -34 86 -11 24 23 19 56
-14 102 -30 42 -50 53 -50 28z m48 -91 c-4 -29 -44 -32 -59 -4 -10 19 -8 25
12 40 23 17 25 17 37 1 7 -9 11 -26 10 -37z"/>
<path d="M1197 3606 c-40 -48 -45 -61 -23 -53 18 7 116 -69 116 -89 0 -8 4
-14 10 -14 14 0 80 90 80 110 0 26 -35 53 -59 45 -15 -4 -20 -1 -23 17 -2 17
-10 24 -34 26 -26 3 -36 -4 -67 -42z m79 3 c3 -6 1 -21 -6 -34 -12 -22 -14
-23 -37 -8 -22 15 -23 17 -7 34 19 21 39 24 50 8z m63 -43 c10 -12 9 -20 -4
-40 -16 -25 -18 -25 -40 -8 -21 15 -21 19 -8 39 18 26 35 29 52 9z"/>
<path d="M2210 3560 c-21 -21 -25 -46 -12 -67 17 -27 70 -33 305 -33 270 0
290 4 295 56 6 63 0 64 -299 64 -256 0 -270 -1 -289 -20z"/>
<path d="M2240 3020 l0 -400 255 0 255 0 0 400 0 400 -255 0 -255 0 0 -400z
m440 -177 c0 -90 -3 -163 -7 -163 -4 0 -85 78 -180 172 l-173 173 0 170 0 170
180 -180 180 -180 0 -162z"/>
<path d="M1810 2940 c0 -204 2 -240 15 -240 28 0 55 -42 55 -84 0 -30 5 -45
20 -54 20 -12 20 -10 20 303 l0 315 -55 0 -55 0 0 -240z"/>
<path d="M3078 2868 c-2 -172 -2 -314 -1 -316 0 -2 10 3 22 10 16 10 21 23 21
54 0 42 27 84 55 84 13 0 15 36 15 240 l0 240 -54 0 -54 0 -4 -312z"/>
<path d="M1300 2838 c-21 -23 -26 -54 -12 -76 13 -20 313 -196 468 -274 148
-74 177 -80 193 -35 14 39 -1 57 -100 123 -148 97 -480 284 -506 284 -12 0
-31 -10 -43 -22z m77 -34 c3 -8 -2 -23 -11 -32 -14 -15 -18 -15 -31 -1 -9 9
-13 23 -9 32 8 21 43 22 51 1z m543 -327 c0 -8 -3 -17 -7 -20 -9 -9 -34 13
-27 24 8 14 34 11 34 -4z"/>
<path d="M3442 2751 c-237 -136 -388 -234 -394 -259 -7 -27 8 -59 32 -67 28
-9 169 59 395 190 220 127 234 136 241 162 6 22 -10 62 -30 75 -26 17 -61 2
-244 -101z m232 52 c4 -9 0 -23 -9 -32 -13 -14 -17 -14 -31 1 -9 9 -14 24 -11
32 8 21 43 20 51 -1z m-561 -320 c9 -9 -13 -34 -24 -27 -14 8 -11 34 4 34 8 0
17 -3 20 -7z"/>
<path d="M2207 2552 c-22 -24 -21 -55 1 -75 16 -15 51 -17 286 -17 165 0 275
4 287 10 22 12 27 68 7 88 -9 9 -87 12 -288 12 -256 0 -278 -1 -293 -18z"/>
<path d="M2290 2410 c0 -6 18 -30 39 -53 41 -44 111 -77 165 -77 71 0 162 49
198 108 l20 32 -211 0 c-137 0 -211 -4 -211 -10z"/>
<path d="M725 2280 c-4 -7 207 -10 624 -10 414 0 631 3 631 10 0 14 -1246 14
-1255 0z"/>
<path d="M3020 2280 c0 -7 217 -10 631 -10 417 0 628 3 624 10 -4 6 -225 10
-631 10 -409 0 -624 -3 -624 -10z"/>
<path d="M1190 1730 l0 -240 85 0 c46 0 95 5 109 11 32 15 46 56 46 136 0 49
-4 67 -19 79 -18 16 -18 17 1 36 17 17 20 31 16 100 -5 109 -16 118 -144 118
l-94 0 0 -240z m148 161 c9 -5 12 -25 10 -62 l-3 -54 -37 -3 -38 -3 0 65 c0
65 0 66 28 66 15 0 33 -4 40 -9z m7 -261 l0 -55 -37 -3 -38 -3 0 61 0 61 38
-3 37 -3 0 -55z"/>
<path d="M1610 1730 l0 -240 120 0 120 0 0 40 0 40 -80 0 -80 0 0 60 0 60 60
0 60 0 0 40 0 40 -60 0 -60 0 0 65 0 65 80 0 80 0 0 35 0 35 -120 0 -120 0 0
-240z"/>
<path d="M2040 1730 l0 -241 38 3 37 3 3 130 4 130 47 -130 48 -130 37 -3 36
-3 0 240 0 241 -40 0 -40 0 -1 -132 0 -133 -47 130 -47 130 -38 3 -37 3 0
-241z"/>
<path d="M2480 1730 l0 -240 40 0 40 0 0 240 0 240 -40 0 -40 0 0 -240z"/>
<path d="M2730 1935 c0 -34 1 -35 40 -35 l40 0 2 -202 3 -203 38 -3 37 -3 0
205 0 206 40 0 c39 0 40 1 40 35 l0 35 -120 0 -120 0 0 -35z"/>
<path d="M3144 1957 c-2 -7 -3 -114 -2 -237 l3 -225 118 -3 117 -3 0 41 0 40
-80 0 -80 0 0 60 0 59 63 3 62 3 3 38 3 37 -66 0 -66 0 3 63 3 62 78 3 77 3 0
34 0 35 -115 0 c-84 0 -117 -3 -121 -13z"/>
<path d="M3577 1963 c-4 -3 -7 -19 -7 -35 l0 -28 70 0 c39 0 70 -1 70 -3 0 -2
-34 -90 -75 -196 -41 -106 -75 -197 -75 -202 0 -5 55 -9 125 -9 l125 0 0 40 0
40 -70 0 c-38 0 -70 2 -70 5 0 3 118 311 147 383 4 9 -23 12 -114 12 -66 0
-123 -3 -126 -7z"/>
<path d="M1310 1120 c0 -7 403 -10 1190 -10 787 0 1190 3 1190 10 0 7 -403 10
-1190 10 -787 0 -1190 -3 -1190 -10z"/>
<path d="M1760 890 c0 -5 5 -10 10 -10 6 0 10 -27 10 -60 0 -33 -4 -60 -10
-60 -5 0 -10 -4 -10 -10 0 -6 27 -10 60 -10 53 0 60 2 60 20 0 11 -4 20 -10
20 -5 0 -10 -4 -10 -10 0 -5 -11 -10 -25 -10 -20 0 -25 5 -25 25 0 20 5 25 25
25 14 0 25 5 25 10 0 6 -11 10 -25 10 -20 0 -25 5 -25 25 0 18 5 25 19 25 11
0 23 -4 26 -10 10 -17 25 -11 25 10 0 18 -7 20 -60 20 -33 0 -60 -4 -60 -10z"/>
<path d="M1988 889 c-10 -5 -18 -21 -18 -34 0 -19 9 -29 38 -42 20 -10 37 -25
37 -33 0 -21 -44 -26 -51 -6 -9 22 -24 20 -24 -4 0 -24 42 -37 79 -24 42 15
35 54 -13 79 -41 21 -47 34 -22 50 10 6 20 4 34 -8 23 -21 32 -22 32 -2 0 9
-12 20 -26 25 -32 12 -44 12 -66 -1z"/>
<path d="M2150 880 c0 -22 10 -26 27 -9 6 6 16 8 22 5 14 -9 15 -103 1 -111
-20 -12 -9 -25 20 -25 17 0 30 5 30 10 0 6 -4 10 -10 10 -14 0 -13 107 1 116
6 3 16 1 22 -5 17 -17 27 -13 27 9 0 18 -7 20 -70 20 -63 0 -70 -2 -70 -20z"/>
<path d="M2608 889 c-20 -11 -24 -39 -7 -39 7 0 17 7 24 17 7 9 17 13 23 9 21
-13 13 -42 -23 -76 -49 -47 -46 -60 15 -60 43 0 50 3 50 20 0 21 -16 28 -22 9
-2 -6 -12 -10 -21 -8 -15 3 -14 9 12 39 34 40 38 62 15 84 -18 18 -41 20 -66
5z"/>
<path d="M2786 878 c-35 -49 -9 -138 38 -138 35 0 51 27 50 83 0 36 -6 53 -19
63 -27 20 -52 17 -69 -8z m64 -57 c0 -44 -13 -66 -34 -58 -20 8 -23 103 -3
110 21 8 37 -14 37 -52z"/>
<path d="M2967 882 c-10 -10 -17 -22 -17 -25 0 -13 23 -7 35 10 11 14 15 15
29 4 13 -11 14 -16 2 -40 -8 -14 -26 -37 -40 -50 -14 -14 -26 -28 -26 -33 0
-4 25 -8 55 -8 48 0 55 2 55 20 0 11 -4 20 -10 20 -5 0 -10 -4 -10 -10 0 -5
-9 -10 -20 -10 -26 0 -25 6 5 42 27 32 32 67 13 86 -18 18 -53 15 -71 -6z"/>
<path d="M3150 885 c-17 -20 -5 -32 15 -15 8 7 22 10 30 6 22 -8 18 -37 -5
-43 -11 -3 -20 -9 -20 -13 0 -4 9 -10 20 -13 23 -6 27 -35 5 -43 -8 -4 -22 -1
-30 6 -22 19 -41 7 -21 -13 22 -21 60 -22 80 -1 19 18 20 36 5 51 -8 8 -8 17
0 30 23 43 -48 86 -79 48z"/>
<path d="M2370 756 c0 -9 7 -16 16 -16 9 0 14 5 12 12 -6 18 -28 21 -28 4z"/>
</g>
</svg>
